<svg xmlns="http://www.w3.org/2000/svg" viewBox="0 0 1028.68 1390.74"><defs><style>.cls-1{fill:#009ed4;}.cls-2{fill:#f7931e;}.cls-3{fill:#004b74;}.cls-4{fill:#333;}.cls-5{fill:#1a1a1a;}.cls-6{fill:#7c6253;}.cls-7{fill:#5b453b;}.cls-8{fill:#957c67;}.cls-9{fill:#b89d82;}.cls-10{fill:#846754;}.cls-11{fill:#603813;}.cls-12{fill:#2d1e1d;}</style></defs><g id="Layer_2" data-name="Layer 2"><g id="Layer_1-2" data-name="Layer 1"><rect class="cls-1" x="363.8" y="1353.13" width="176.24" height="22.5"/><polygon class="cls-2" points="445.04 1285.63 540.04 1329.38 540.04 1353.13 363.8 1353.13 445.04 1285.63"/><polygon class="cls-1" points="438.53 1252.81 445.04 1285.63 540.04 1329.38 540.04 1283.68 662.37 1319.38 714.83 1297.55 816.3 1329.38 803.88 1258.21 862.55 1231.98 853.58 1205.06 663.06 1294.1 348.99 1197.46 348.99 1225.08 438.53 1252.81"/><polygon class="cls-2" points="693.44 1364.38 823.9 1364.38 816.3 1329.38 714.83 1297.55 693.44 1364.38"/><rect class="cls-1" x="693.44" y="1364.38" width="130.46" height="26.36"/><polygon class="cls-3" points="663.06 1294.1 639.6 788.82 570.57 765.36 743.83 654.91 977.83 785.37 909.49 906.86 812.16 884.08 745.21 759.14 714.14 812.98 853.58 1205.06 663.06 1294.1"/><polygon class="cls-3" points="348.99 1197.46 663.06 1294.1 460.67 868.9 367.96 703.6 362.52 703.6 348.99 1197.46"/><polygon points="259.19 720.92 367.96 703.6 387.7 591.57 315.7 667.76 165.42 606.64 259.19 720.92"/><polygon class="cls-3" points="214.4 482.31 270.91 552.64 315.7 667.76 165.42 606.64 214.4 482.31"/><polygon class="cls-1" points="196.82 461.38 214.4 482.31 165.42 606.64 259.19 720.92 231.03 722.62 131.97 612.66 196.82 461.38"/><polygon class="cls-1" points="270.91 552.64 394.59 518.43 397.33 534.5 387.7 591.57 315.7 667.76 270.91 552.64"/><polygon class="cls-4" points="299.38 467.45 334.12 535.16 394.59 518.43 299.38 467.45"/><polygon class="cls-5" points="355.32 421.57 299.38 467.45 394.59 518.43 408.04 470 387.7 465.04 394.59 421.57 355.32 421.57"/><polygon class="cls-4" points="324.33 328.21 405.62 356.38 394.59 421.57 355.32 421.57 324.33 328.21"/><polygon class="cls-5" points="417.29 289.17 405.62 356.38 324.33 328.21 417.29 289.17"/><polygon class="cls-6" points="408.04 470 387.7 465.04 446.67 119.75 544.06 65.02 595.57 120.55 735.22 90.37 701.01 149.53 628.97 526.61 606.44 522.99 618.91 451.36 532.39 373.28 505.83 379.32 492.55 365.64 417.29 413.53 408.04 470"/><polygon class="cls-1" points="820.22 579.97 570.57 740.23 566.45 758.75 460.67 868.9 663.06 1294.1 639.6 788.82 570.57 765.36 743.83 654.91 977.83 785.37 909.49 906.86 812.16 884.08 830.05 909.6 920.59 941.04 996.67 809.63 820.22 579.97"/><polygon points="745.21 759.14 702.89 681 743.83 654.91 909.49 906.86 812.16 884.08 745.21 759.14"/><polygon class="cls-2" points="820.22 579.97 767.88 522.4 592.68 598.41 570.57 740.23 820.22 579.97"/><polygon class="cls-1" points="763.54 486.2 602.1 549.18 592.68 598.41 767.88 522.4 763.54 486.2"/><polygon class="cls-7" points="628.97 526.61 648.57 531.05 763.54 486.2 774.2 443.49 748.33 381.23 809.87 399.32 835.21 322.78 786.7 304.49 756.3 322.78 745.44 203.13 783.81 181.41 735.22 90.37 701.01 149.53 628.97 526.61"/><polygon points="851.45 157.32 803.21 310.71 786.7 304.49 756.3 322.78 745.44 203.13 783.81 181.41 735.22 90.37 745.76 73.39 851.45 157.32"/><polygon class="cls-5" points="595.57 120.55 735.22 90.37 745.76 73.39 651.12 0 595.57 120.55"/><polygon class="cls-4" points="544.06 65.02 552.57 28.39 651.12 0 595.57 120.55 544.06 65.02"/><polygon class="cls-5" points="446.67 119.75 504.37 43.38 552.57 28.39 544.06 65.02 446.67 119.75"/><polygon points="476.28 163.77 476.28 175.9 527.35 188.67 539.16 176.22 476.28 163.77"/><polygon points="608.11 176.22 610.98 190.9 673.86 200.8 671.31 182.6 608.11 176.22"/><polygon class="cls-8" points="531.18 356.38 673.86 200.8 610.98 190.9 584.17 200.8 551.93 245.48 531.18 356.38"/><polygon class="cls-8" points="504.69 281.55 476.28 175.9 543.95 193.14 514.58 235.59 504.69 281.55"/><polygon class="cls-9" points="489.46 347.08 531.18 356.38 551.93 245.48 584.17 200.8 543.95 193.14 514.58 235.59 489.46 347.08"/><polygon points="503.12 372.12 531.18 356.38 489.46 347.08 503.12 372.12"/><circle cx="606.57" cy="271.88" r="15.42"/><circle cx="491.19" cy="243.63" r="14.91"/><polygon class="cls-8" points="104.25 369.42 113.89 362.38 181.04 405.41 196.82 461.38 179.71 501.3 157.3 487.4 144.31 459.57 145.06 421.57 117.23 399.1 104.25 369.42"/><polygon class="cls-2" points="119.46 457.72 144.31 459.57 104.25 369.42 119.46 457.72"/><polygon class="cls-10" points="145.06 421.57 144.31 459.57 117.23 399.1 145.06 421.57"/><polygon class="cls-1" points="172.37 518.43 131.14 519.67 119.46 457.72 144.31 459.57 172.37 518.43"/><polygon class="cls-6" points="104.25 369.42 64.55 371.65 69.75 486.29 131.14 519.67 104.25 369.42"/><polygon class="cls-1" points="42.66 354.58 64.55 371.65 104.25 369.42 64.55 342.34 69 291.89 46 279.27 10.02 193.95 0 187.64 43.78 291.15 42.66 354.58"/><polygon class="cls-2" points="17.07 187.64 69 291.89 46 279.27 10.02 193.95 0 187.64 17.07 187.64"/><polygon class="cls-4" points="869.3 569.83 834.39 598.41 800.18 557.92 869.3 569.83"/><polygon class="cls-5" points="845.4 507.05 869.3 569.83 800.18 557.92 767.88 522.4 845.4 507.05"/><polygon class="cls-4" points="887.73 459.65 845.4 507.05 767.88 522.4 763.54 486.2 774.2 443.49 887.73 459.65"/><polygon class="cls-5" points="825.63 351.7 887.73 459.65 774.2 443.49 782.27 391.2 809.87 399.32 825.63 351.7"/><polygon class="cls-6" points="938.43 996.31 957.97 978.12 920.59 941.04 891.13 930.81 938.43 996.31"/><polygon class="cls-8" points="996.67 1022.91 957.97 978.12 1008.48 909.76 1028.68 977.11 996.67 1022.91"/><polygon class="cls-9" points="989.62 868.34 1008.48 909.76 957.97 978.12 920.59 941.04 989.62 868.34"/><polygon class="cls-7" points="977.83 842.18 989.62 868.34 920.59 941.04 977.83 842.18"/><polygon class="cls-4" points="334.12 906.86 430.7 845.46 456.37 569.83 505.83 379.32 532.39 373.28 618.91 451.36 566.45 758.75 436.33 891.78 334.12 906.86"/><polygon class="cls-5" points="397.33 807.24 334.12 906.86 430.7 845.46 456.37 569.83 505.83 379.32 492.55 365.64 417.29 413.53 365.36 720.92 397.33 807.24"/><polygon class="cls-11" points="548.61 405.68 546.49 421.57 464.96 405.68 469.19 390.68 548.61 405.68"/><polygon class="cls-12" points="774.2 443.49 782.27 391.2 748.33 381.23 774.2 443.49"/><polygon class="cls-12" points="648.57 531.05 606.44 522.99 602.1 549.18 648.57 531.05"/><polygon class="cls-7" points="131.14 519.67 160.63 545.82 172.37 518.43 131.14 519.67"/><polygon class="cls-10" points="179.71 501.3 172.37 518.43 157.3 487.4 179.71 501.3"/></g></g></svg>