<svg id="Layer_1" data-name="Layer 1" xmlns="http://www.w3.org/2000/svg" xmlns:xlink="http://www.w3.org/1999/xlink" viewBox="0 0 465.98 369.95"><defs><style>.cls-1,.cls-24,.cls-31{fill:#fff;}.cls-2{fill:#f39200;}.cls-3{font-size:12px;}.cls-22,.cls-3,.cls-37{fill:#b2b2b2;}.cls-19,.cls-22,.cls-24,.cls-3,.cls-31,.cls-4,.cls-7{font-family:Montserrat-SemiBold, Montserrat;font-weight:600;}.cls-4{font-size:11.56px;fill:#2fac66;}.cls-5{letter-spacing:-0.02em;}.cls-6{letter-spacing:-0.01em;}.cls-7{font-size:25.88px;}.cls-19,.cls-7{fill:#3c3c3b;}.cls-8{letter-spacing:-0.02em;}.cls-9{letter-spacing:0.01em;}.cls-10{letter-spacing:-0.01em;}.cls-11{letter-spacing:0em;}.cls-12{letter-spacing:0em;}.cls-13{letter-spacing:-0.02em;}.cls-14{letter-spacing:-0.01em;}.cls-15{letter-spacing:-0.04em;}.cls-16{letter-spacing:0.02em;}.cls-17{letter-spacing:-0.02em;}.cls-18{letter-spacing:-0.01em;}.cls-19{font-size:20.07px;}.cls-20{letter-spacing:0em;}.cls-21{letter-spacing:0.01em;}.cls-22{font-size:14.48px;}.cls-23{letter-spacing:-0.01em;}.cls-24{font-size:22.59px;}.cls-25{letter-spacing:-0.02em;}.cls-26{letter-spacing:-0.01em;}.cls-27{letter-spacing:0.01em;}.cls-28{letter-spacing:-0.01em;}.cls-29{letter-spacing:-0.02em;}.cls-30{letter-spacing:-0.01em;}.cls-31{font-size:17.65px;}.cls-32{letter-spacing:-0.01em;}.cls-33{letter-spacing:-0.01em;}.cls-34,.cls-35,.cls-38,.cls-39{fill:none;stroke-miterlimit:10;}.cls-34,.cls-38{stroke:#2fac66;}.cls-34,.cls-39{stroke-width:2px;}.cls-35{stroke:#f39200;}.cls-36{fill:url(#linear-gradient);}.cls-38{stroke-width:3px;}.cls-39{stroke:#fff;}</style><linearGradient id="linear-gradient" x1="131.71" y1="166.69" x2="134.3" y2="292.79" gradientUnits="userSpaceOnUse"><stop offset="0" stop-color="#f39200"/><stop offset="1" stop-color="#f39200" stop-opacity="0"/></linearGradient></defs><rect class="cls-1" x="0.13" y="28.05" width="267.07" height="302.44" rx="22.34"/><rect class="cls-1" x="296.47" width="168.29" height="168.29" rx="19"/><rect class="cls-2" x="295.25" y="199.22" width="170.73" height="170.73" rx="19"/><text class="cls-3" transform="translate(21.19 60.98)">Statistics</text><text class="cls-4" transform="translate(42.27 102.09)"><tspan class="cls-5">+</tspan><tspan x="6.59" y="0">3</tspan><tspan class="cls-6" x="13.32" y="0">.4</tspan><tspan x="23.88" y="0">9%</tspan></text><text class="cls-7" transform="translate(21.19 140.59)">1<tspan class="cls-8" x="9.86" y="0">7</tspan><tspan class="cls-9" x="25.13" y="0">8</tspan><tspan class="cls-10" x="42.26" y="0">,</tspan><tspan class="cls-11" x="48.26" y="0">080</tspan></text><text class="cls-3" transform="translate(13.94 304.14)"><tspan class="cls-12">0</tspan><tspan x="8.02" y="0">1</tspan><tspan class="cls-13" x="12.59" y="0">/</tspan><tspan class="cls-14" x="16.8" y="0">0</tspan><tspan x="24.76" y="0">3</tspan></text><text class="cls-3" transform="translate(67.31 304.14)"><tspan class="cls-12">0</tspan><tspan class="cls-15" x="8.02" y="0">7</tspan><tspan class="cls-13" x="14.83" y="0">/</tspan><tspan class="cls-14" x="19.04" y="0">0</tspan><tspan x="27" y="0">3</tspan></text><text class="cls-3" transform="translate(121.35 304.14)">1<tspan class="cls-16" x="4.57" y="0">4</tspan><tspan class="cls-13" x="13.02" y="0">/</tspan><tspan class="cls-14" x="17.23" y="0">0</tspan><tspan x="25.19" y="0">3</tspan></text><text class="cls-3" transform="translate(176.04 304.14)">21<tspan class="cls-13" x="11.56" y="0">/</tspan><tspan class="cls-14" x="15.77" y="0">0</tspan><tspan x="23.72" y="0">3</tspan></text><text class="cls-3" transform="translate(228.1 304.14)">28<tspan class="cls-17" x="14.81" y="0">/</tspan><tspan class="cls-18" x="19.02" y="0">0</tspan><tspan x="26.98" y="0">3</tspan></text><text class="cls-19" transform="translate(323.92 107.85)">9<tspan class="cls-20" x="12.58" y="0">4</tspan><tspan class="cls-21" x="26.15" y="0">2.</tspan><tspan x="43.13" y="0">213</tspan></text><text class="cls-22" transform="translate(325.6 128.95)"><tspan class="cls-23">V</tspan><tspan x="10.41" y="0">isits</tspan></text><text class="cls-24" transform="translate(324.92 310.86)"><tspan class="cls-25">+</tspan><tspan class="cls-26" x="12.88" y="0">3</tspan><tspan class="cls-27" x="25.91" y="0">2</tspan><tspan class="cls-28" x="39.28" y="0">.</tspan><tspan class="cls-29" x="44.45" y="0">7</tspan><tspan class="cls-30" x="57.78" y="0">8</tspan><tspan x="72.28" y="0">%</tspan></text><text class="cls-31" transform="translate(325.63 331.49)">R<tspan class="cls-32" x="12.9" y="0">e</tspan><tspan class="cls-33" x="23.7" y="0">v</tspan><tspan x="33.64" y="0">enue</tspan></text><polyline class="cls-34" points="27.02 94.7 34.41 94.7 34.41 102.09"/><line class="cls-34" x1="27.02" y1="102.09" x2="34.41" y2="94.7"/><polyline class="cls-35" points="0.13 233.29 27.02 226.03 53.52 204.62 80.81 218.95 108.44 211.18 133.67 188.72 160.96 204.62 188.25 188.72 214.85 199.78 240.72 182.5 267.2 193.56"/><polygon class="cls-36" points="0.13 233.29 27.02 226.03 53.52 204.62 80.81 218.95 108.44 211.18 133.67 188.72 160.96 204.62 188.25 188.72 214.85 199.78 240.72 182.5 267.2 193.56 267.2 330.49 0.13 330.49 0.13 233.29"/><circle class="cls-37" cx="232.89" cy="58.91" r="1.03"/><circle class="cls-37" cx="242.87" cy="58.91" r="1.03"/><circle class="cls-37" cx="237.88" cy="58.91" r="1.03"/><path class="cls-38" d="M362.75,99.73a21.7,21.7,0,0,1,3-6.86c3.07-4.62,5.72-4.63,8.68-9.22,2.72-4.22,2.7-7.67,4-7.64.56,0,1,.57,4.92,8,.9,1.73,1.37,2.63,2.18,2.72,2,.24,4.06-4.61,4.18-4.91,2.31-5.52,1.38-11.64,2.92-17.46.22-.84.68-2.18,1.27-2.19s1.16,1.76,2,4.55c2.48,8.21,3.11,8.9,3.82,9.1,1.27.36,1.76-1.08,5.64-2.55,1.55-.59,3.05-1.16,4.73-.73s2.73,1.81,3.82,3.28A112.72,112.72,0,0,0,425,88.38a11.22,11.22,0,0,0,2.91,2,6.66,6.66,0,0,0,4.37.91c.6-.14.69-.3,3.82-2.54,1.74-1.25,2-1.43,2.55-1.46,1.72-.1,3.12,1.74,3.46,2.18,2.16,2.86.62,4.92,2.18,7.28,1.79,2.71,6.38,3.9,9.64,2.55,1.63-.67,4.29-2.62,4.92-5.1a3.26,3.26,0,0,1,.91-2,2.19,2.19,0,0,1,2.18-.36c1.83,1-.18,5.74,2,7.28a3.14,3.14,0,0,0,2.55.18c1.78-.57,2.31-2.55,2.91-2.37s0,2.19,1.09,3.64a3.79,3.79,0,0,0,2.73,1.28" transform="translate(-37.45 -35.12)"/><path class="cls-39" d="M363.43,285l8.56-8.57m0,8.57v-8.57h-8.56" transform="translate(-37.45 -35.12)"/></svg>